<svg xmlns="http://www.w3.org/2000/svg" width="1280" height="805" viewBox="0 0 1280 805">
  <g fill="none" fill-rule="evenodd">
    <g fill-rule="nonzero" transform="translate(0 28)">
      <polygon fill="#3F2E84" points="0 0 1280 0 1280 805 0 805"/>
      <g transform="translate(405 54)">
        <path fill="#FAFAFA" d="M7.97962649,0 L462.020374,0 C466.409168,0 470,3.57380531 470,7.97724399 L470,623.022756 C470,627.434172 466.425127,631 462.020374,631 L7.97962649,631 C3.59083192,631 0,627.426195 0,623.022756 L0,7.97724399 C0,3.56582807 3.57487267,0 7.97962649,0 Z M286.404754,0 L372.552801,87.031732 C375.648896,90.1667889 380.69202,95.2163843 383.835993,98.3195322 L470,183.516498 L470,7.97724399 C470,3.57380531 466.425127,0 462.020374,0 L286.404754,0 Z"/>
        <polyline fill="#000" points="308 184 470 184 470 319" opacity=".1"/>
        <path fill="#E0E0E0" fill-opacity=".22" d="M286,0 L470,184 L311.591099,184 C297.460014,184 286,172.538492 286,158.405564 L286,0 Z"/>
      </g>
    </g>
    <path fill="#3F2E84" fill-rule="nonzero" d="M655.164158,455.068728 C662.224084,466.528645 671.410951,474.948418 687.655752,474.948418 C701.303616,474.948418 710.020484,468.169451 710.020484,458.801613 C710.020484,447.579207 701.064634,443.600894 686.042624,437.069335 L677.807702,433.560106 C654.040942,423.497547 638.252198,410.889659 638.252198,384.236941 C638.252198,359.688175 657.072031,341 686.486732,341 C707.429521,341 722.483395,348.244093 733.333178,367.209364 L707.682444,383.577847 C702.038485,373.511329 695.946436,369.544892 686.488723,369.544892 C676.839825,369.544892 670.725869,375.629138 670.725869,383.577847 C670.725869,393.394978 676.847791,397.373291 690.979593,403.453578 L699.214515,406.956869 C727.199307,418.885871 743,431.044467 743,458.382009 C743,487.853195 719.707221,504 688.422486,504 C657.83279,504 638.07097,489.511815 628.402157,470.524771 L655.168141,455.066748 L655.164158,455.068728 Z M538.81378,457.906987 C543.987741,467.031377 548.691703,474.744554 560.009492,474.744554 C570.831394,474.744554 577.658313,470.538626 577.658313,454.176081 L577.658313,342.868422 L610.592024,342.868422 L610.592024,454.617456 C610.592024,488.512288 590.597196,503.940622 561.409528,503.940622 C535.041848,503.940622 519.766915,490.374772 512,474.037958 L538.81378,457.906987 Z"/>
  </g>
</svg>
