<svg xmlns="http://www.w3.org/2000/svg" width="1280" height="805" viewBox="0 0 1280 805">
  <defs>
    <linearGradient id="gradient-a" x1="92.447%" x2="0%" y1="81.723%" y2="0%">
      <stop offset="0%" stop-color="#FFDF58"/>
      <stop offset="11.565%" stop-color="#FFD762"/>
      <stop offset="26.314%" stop-color="#FFC77F"/>
      <stop offset="69.053%" stop-color="#F5A6B6"/>
      <stop offset="79.575%" stop-color="#FF8BBA"/>
      <stop offset="100%" stop-color="#FF54D0"/>
    </linearGradient>
  </defs>
  <g fill="none" fill-rule="evenodd">
    <rect width="1280" height="805" fill="url(#gradient-a)"/>
    <path fill="#FFF" d="M323.659571,384.438076 L356.099831,384.438076 C356.099831,387.773852 355.960842,390.803803 355.682861,393.52802 C355.404879,396.252237 354.848925,398.781829 354.014981,401.116872 C352.84746,404.397052 351.26299,407.301913 349.261524,409.831543 C347.260059,412.361174 344.911151,414.4738 342.214733,416.169486 C339.518314,417.865172 336.557857,419.157766 333.333273,420.047306 C330.10869,420.936847 326.717369,421.38161 323.159208,421.38161 C318.266736,421.38161 313.805203,420.575476 309.774473,418.963185 C305.743744,417.350893 302.282928,415.085379 299.391923,412.166575 C296.500917,409.247771 294.249302,405.745259 292.63701,401.658933 C291.024718,397.572608 290.218584,393.055479 290.218584,388.107411 C290.218584,383.21494 291.010819,378.725608 292.595313,374.639283 C294.179807,370.552957 296.431422,367.064344 299.350226,364.173338 C302.26903,361.282332 305.785441,359.030717 309.899564,357.418425 C314.013688,355.806134 318.600311,355 323.659571,355 C330.219931,355 335.974058,356.417684 340.922126,359.253093 C345.870194,362.088503 349.789672,366.480542 352.680677,372.429342 L337.169397,378.850679 C335.723894,375.40371 333.847548,372.929714 331.540303,371.428615 C329.233058,369.927515 326.606174,369.176977 323.659571,369.176977 C321.213336,369.176977 318.989518,369.635639 316.988053,370.552978 C314.986587,371.470316 313.277028,372.776809 311.859323,374.472495 C310.441618,376.168181 309.32971,378.211313 308.523564,380.601953 C307.717418,382.992592 307.314351,385.661173 307.314351,388.607775 C307.314351,391.276396 307.661822,393.750392 308.356776,396.029839 C309.051729,398.309286 310.094143,400.282924 311.48405,401.950812 C312.873957,403.6187 314.597415,404.911294 316.654477,405.828632 C318.711539,406.745971 321.102142,407.204633 323.826359,407.204633 C325.438651,407.204633 326.995323,407.023948 328.496422,406.662572 C329.997522,406.301196 331.345711,405.717444 332.541031,404.911299 C333.73635,404.105153 334.723169,403.062738 335.501517,401.784024 C336.279865,400.50531 336.808021,398.948638 337.086003,397.113961 L323.659571,397.113961 L323.659571,384.438076 Z M382.785905,384.855046 L385.871482,384.855046 C389.096066,384.855046 391.570063,384.187901 393.293547,382.85359 C395.017031,381.51928 395.87876,379.601237 395.87876,377.099405 C395.87876,374.597573 395.017031,372.679531 393.293547,371.345221 C391.570063,370.01091 389.096066,369.343765 385.871482,369.343765 L382.785905,369.343765 L382.785905,384.855046 Z M418.728712,419.630336 L398.38058,419.630336 L382.785905,395.446082 L382.785905,419.630336 L366.440684,419.630336 L366.440684,356.751274 L391.875849,356.751274 C395.378414,356.751274 398.436163,357.265531 401.049187,358.294062 C403.662212,359.322593 405.816535,360.726378 407.512221,362.505458 C409.207907,364.284539 410.486602,366.34157 411.348344,368.676613 C412.210086,371.011656 412.640951,373.513451 412.640951,376.182072 C412.640951,380.96335 411.487346,384.841132 409.180101,387.815532 C406.872855,390.789932 403.467635,392.805267 398.964338,393.861596 L418.728712,419.630336 Z M459.758551,396.280021 L452.41988,375.348132 L445.08121,396.280021 L459.758551,396.280021 Z M464.095038,408.705725 L440.744723,408.705725 L436.991994,419.630336 L419.562651,419.630336 L443.496724,356.751274 L461.343037,356.751274 L485.27711,419.630336 L467.847767,419.630336 L464.095038,408.705725 Z M508.794213,405.786935 L512.546942,405.786935 C515.382351,405.786935 517.911944,405.342172 520.135794,404.452632 C522.359645,403.563091 524.235991,402.339992 525.764888,400.783296 C527.293785,399.226601 528.461289,397.378053 529.267435,395.237597 C530.073581,393.09714 530.476648,390.748233 530.476648,388.190805 C530.476648,385.688973 530.059682,383.353965 529.225738,381.185711 C528.391794,379.017456 527.210391,377.155009 525.681494,375.598314 C524.152597,374.041618 522.276251,372.818519 520.0524,371.928978 C517.82855,371.039438 515.326755,370.594675 512.546942,370.594675 L508.794213,370.594675 L508.794213,405.786935 Z M492.448992,356.751274 L516.633247,356.751274 C520.91416,356.751274 524.930929,357.613003 528.683677,359.336487 C532.436425,361.059971 535.716556,363.353283 538.524167,366.216491 C541.331779,369.079698 543.541697,372.415424 545.153989,376.223769 C546.766281,380.032113 547.572415,384.021085 547.572415,388.190805 C547.572415,392.304929 546.78018,396.266103 545.195686,400.074448 C543.611192,403.882792 541.415173,407.232417 538.607561,410.123422 C535.79995,413.014428 532.519819,415.321639 528.767071,417.045123 C525.014323,418.768607 520.969756,419.630336 516.633247,419.630336 L492.448992,419.630336 L492.448992,356.751274 Z M574.341883,356.751274 L574.341883,419.630336 L557.996662,419.630336 L557.996662,356.751274 L574.341883,356.751274 Z M623.294151,370.594675 L603.863353,370.594675 L603.863353,381.102317 L622.210029,381.102317 L622.210029,394.945718 L603.863353,394.945718 L603.863353,405.786935 L623.294151,405.786935 L623.294151,419.630336 L587.518132,419.630336 L587.518132,356.751274 L623.294151,356.751274 L623.294151,370.594675 Z M635.052702,419.630336 L635.052702,356.751274 L651.397923,356.751274 L681.586544,395.1959 L681.586544,356.751274 L697.848371,356.751274 L697.848371,419.630336 L681.586544,419.630336 L651.397923,381.185711 L651.397923,419.630336 L635.052702,419.630336 Z M734.875299,370.594675 L734.875299,419.630336 L718.530079,419.630336 L718.530079,370.594675 L705.103647,370.594675 L705.103647,356.751274 L748.30173,356.751274 L748.30173,370.594675 L734.875299,370.594675 Z M790.082116,372.846312 C788.303035,371.400809 786.523981,370.330597 784.744901,369.635644 C782.96582,368.940691 781.242362,368.593219 779.574474,368.593219 C777.461816,368.593219 775.738357,369.093578 774.404047,370.094311 C773.069737,371.095044 772.402591,372.401536 772.402591,374.013828 C772.402591,375.125753 772.736164,376.043078 773.403319,376.765829 C774.070474,377.488581 774.946102,378.11403 776.03023,378.642194 C777.114357,379.170359 778.337456,379.629021 779.699565,380.018195 C781.061673,380.407369 782.409863,380.824334 783.744173,381.269104 C789.081415,383.048185 792.986994,385.42489 795.461028,388.39929 C797.935061,391.37369 799.17206,395.251472 799.17206,400.032751 C799.17206,403.257334 798.630004,406.176094 797.545877,408.789119 C796.46175,411.402143 794.87728,413.639859 792.79242,415.502334 C790.70756,417.364809 788.15017,418.81029 785.120174,419.838821 C782.090177,420.867352 778.657159,421.38161 774.821017,421.38161 C766.870751,421.38161 759.504356,419.018804 752.721611,414.293122 L759.726706,401.116872 C762.172942,403.285127 764.591343,404.897394 766.981982,405.953723 C769.372622,407.010052 771.735428,407.538209 774.070471,407.538209 C776.739092,407.538209 778.726628,406.926659 780.033141,405.703541 C781.339653,404.480424 781.992899,403.090538 781.992899,401.533842 C781.992899,400.588706 781.826113,399.768673 781.492535,399.07372 C781.158958,398.378766 780.603004,397.739419 779.824656,397.155658 C779.046308,396.571897 778.031691,396.029842 776.780775,395.529475 C775.529859,395.029109 774.014884,394.473155 772.235803,393.861596 C770.123145,393.194441 768.052215,392.457801 766.022952,391.651655 C763.993688,390.845509 762.186836,389.775297 760.602343,388.440987 C759.017849,387.106677 757.739154,385.424915 756.76622,383.395651 C755.793285,381.366387 755.306825,378.795099 755.306825,375.681708 C755.306825,372.568317 755.821083,369.746849 756.849614,367.217218 C757.878145,364.687588 759.323626,362.519366 761.186101,360.712488 C763.048576,358.905609 765.327988,357.501824 768.024407,356.501092 C770.720826,355.500359 773.736878,355 777.072654,355 C780.186045,355 783.438378,355.430865 786.82975,356.292607 C790.221123,357.154349 793.473455,358.419145 796.586846,360.087033 L790.082116,372.846312 Z M807.261276,411.624514 C807.261276,410.290204 807.511455,409.025408 808.011822,407.830088 C808.512188,406.634768 809.207131,405.592354 810.096671,404.702814 C810.986212,403.813273 812.028626,403.11833 813.223946,402.617964 C814.419266,402.117598 815.684062,401.867418 817.018372,401.867418 C818.352682,401.867418 819.617478,402.117598 820.812798,402.617964 C822.008118,403.11833 823.050532,403.813273 823.940073,404.702814 C824.829613,405.592354 825.524556,406.634768 826.024922,407.830088 C826.525288,409.025408 826.775468,410.290204 826.775468,411.624514 C826.775468,412.958825 826.525288,414.223621 826.024922,415.41894 C825.524556,416.61426 824.829613,417.656674 823.940073,418.546215 C823.050532,419.435755 822.008118,420.130698 820.812798,420.631064 C819.617478,421.131431 818.352682,421.38161 817.018372,421.38161 C815.684062,421.38161 814.419266,421.131431 813.223946,420.631064 C812.028626,420.130698 810.986212,419.435755 810.096671,418.546215 C809.207131,417.656674 808.512188,416.61426 808.011822,415.41894 C807.511455,414.223621 807.261276,412.958825 807.261276,411.624514 Z M883.066406,377.766557 C879.28586,373.152067 874.615844,370.844857 869.056217,370.844857 C866.609981,370.844857 864.344467,371.28962 862.259608,372.17916 C860.174748,373.068701 858.381795,374.277901 856.880696,375.806799 C855.379596,377.335696 854.198194,379.156446 853.336451,381.269104 C852.474709,383.381763 852.043845,385.661175 852.043845,388.107411 C852.043845,390.609243 852.474709,392.916453 853.336451,395.029112 C854.198194,397.14177 855.393495,398.976419 856.922393,400.533114 C858.45129,402.08981 860.244243,403.312909 862.301304,404.20245 C864.358366,405.09199 866.582184,405.536753 868.972823,405.536753 C874.198872,405.536753 878.896686,403.312936 883.066406,398.865235 L883.066406,418.212639 L881.398526,418.796397 C878.896695,419.685937 876.561686,420.339183 874.393432,420.756155 C872.225178,421.173127 870.084753,421.38161 867.972095,421.38161 C863.635587,421.38161 859.479828,420.561577 855.504695,418.921488 C851.529562,417.281398 848.02705,414.974187 844.997053,411.999787 C841.967057,409.025387 839.534756,405.495077 837.70008,401.408751 C835.865403,397.322426 834.948078,392.860892 834.948078,388.024017 C834.948078,383.187142 835.851504,378.753406 837.658383,374.722677 C839.465261,370.691948 841.883663,367.217233 844.913659,364.298429 C847.943656,361.379625 851.460067,359.100212 855.462998,357.460122 C859.465929,355.820033 863.663384,355 868.055489,355 C870.557321,355 873.017419,355.264078 875.435857,355.792243 C877.854294,356.320407 880.397785,357.14044 883.066406,358.252365 L883.066406,377.766557 Z M927.932369,372.846312 C926.153288,371.400809 924.374234,370.330597 922.595154,369.635644 C920.816073,368.940691 919.092615,368.593219 917.424727,368.593219 C915.312069,368.593219 913.58861,369.093578 912.2543,370.094311 C910.91999,371.095044 910.252844,372.401536 910.252844,374.013828 C910.252844,375.125753 910.586417,376.043078 911.253572,376.765829 C911.920727,377.488581 912.796355,378.11403 913.880483,378.642194 C914.96461,379.170359 916.187709,379.629021 917.549818,380.018195 C918.911926,380.407369 920.260116,380.824334 921.594426,381.269104 C926.931668,383.048185 930.837247,385.42489 933.311281,388.39929 C935.785314,391.37369 937.022313,395.251472 937.022313,400.032751 C937.022313,403.257334 936.480257,406.176094 935.39613,408.789119 C934.312003,411.402143 932.727533,413.639859 930.642673,415.502334 C928.557813,417.364809 926.000423,418.81029 922.970427,419.838821 C919.94043,420.867352 916.507412,421.38161 912.67127,421.38161 C904.721004,421.38161 897.354609,419.018804 890.571865,414.293122 L897.576959,401.116872 C900.023195,403.285127 902.441596,404.897394 904.832236,405.953723 C907.222875,407.010052 909.585681,407.538209 911.920724,407.538209 C914.589345,407.538209 916.576882,406.926659 917.883394,405.703541 C919.189906,404.480424 919.843152,403.090538 919.843152,401.533842 C919.843152,400.588706 919.676366,399.768673 919.342789,399.07372 C919.009211,398.378766 918.453257,397.739419 917.674909,397.155658 C916.896561,396.571897 915.881945,396.029842 914.631029,395.529475 C913.380113,395.029109 911.865137,394.473155 910.086056,393.861596 C907.973398,393.194441 905.902468,392.457801 903.873205,391.651655 C901.843941,390.845509 900.037089,389.775297 898.452596,388.440987 C896.868102,387.106677 895.589407,385.424915 894.616473,383.395651 C893.643538,381.366387 893.157078,378.795099 893.157078,375.681708 C893.157078,372.568317 893.671336,369.746849 894.699867,367.217218 C895.728398,364.687588 897.173879,362.519366 899.036354,360.712488 C900.898829,358.905609 903.178241,357.501824 905.87466,356.501092 C908.571079,355.500359 911.587131,355 914.922907,355 C918.036298,355 921.288631,355.430865 924.680003,356.292607 C928.071376,357.154349 931.323708,358.419145 934.437099,360.087033 L927.932369,372.846312 Z M981.804881,372.846312 C980.025801,371.400809 978.246747,370.330597 976.467667,369.635644 C974.688586,368.940691 972.965128,368.593219 971.29724,368.593219 C969.184582,368.593219 967.461123,369.093578 966.126813,370.094311 C964.792502,371.095044 964.125357,372.401536 964.125357,374.013828 C964.125357,375.125753 964.45893,376.043078 965.126085,376.765829 C965.79324,377.488581 966.668868,378.11403 967.752995,378.642194 C968.837123,379.170359 970.060222,379.629021 971.422331,380.018195 C972.784439,380.407369 974.132628,380.824334 975.466939,381.269104 C980.80418,383.048185 984.709759,385.42489 987.183793,388.39929 C989.657827,391.37369 990.894826,395.251472 990.894826,400.032751 C990.894826,403.257334 990.35277,406.176094 989.268643,408.789119 C988.184516,411.402143 986.600046,413.639859 984.515186,415.502334 C982.430326,417.364809 979.872936,418.81029 976.842939,419.838821 C973.812943,420.867352 970.379925,421.38161 966.543783,421.38161 C958.593517,421.38161 951.227122,419.018804 944.444377,414.293122 L951.449472,401.116872 C953.895708,403.285127 956.314109,404.897394 958.704748,405.953723 C961.095388,407.010052 963.458194,407.538209 965.793237,407.538209 C968.461858,407.538209 970.449394,406.926659 971.755907,405.703541 C973.062419,404.480424 973.715665,403.090538 973.715665,401.533842 C973.715665,400.588706 973.548879,399.768673 973.215301,399.07372 C972.881724,398.378766 972.325769,397.739419 971.547422,397.155658 C970.769074,396.571897 969.754457,396.029842 968.503541,395.529475 C967.252625,395.029109 965.73765,394.473155 963.958569,393.861596 C961.845911,393.194441 959.774981,392.457801 957.745717,391.651655 C955.716454,390.845509 953.909602,389.775297 952.325109,388.440987 C950.740615,387.106677 949.46192,385.424915 948.488985,383.395651 C947.516051,381.366387 947.029591,378.795099 947.029591,375.681708 C947.029591,372.568317 947.543848,369.746849 948.572379,367.217218 C949.60091,364.687588 951.046392,362.519366 952.908866,360.712488 C954.771341,358.905609 957.050754,357.501824 959.747173,356.501092 C962.443592,355.500359 965.459644,355 968.79542,355 C971.908811,355 975.161144,355.430865 978.552516,356.292607 C981.943888,357.154349 985.196221,358.419145 988.309612,360.087033 L981.804881,372.846312 Z"/>
  </g>
</svg>
